<svg width="24" height="24" viewBox="0 0 24 24" fill="none" xmlns="http://www.w3.org/2000/svg">
<path fill-rule="evenodd" clip-rule="evenodd" d="M8 15H18.333L19.667 7H8.667L8.4 5H5V7H6.667L8 15ZM9.333 18.334C9.68667 18.3341 10.0259 18.1938 10.2761 17.9438C10.5262 17.6938 10.6669 17.3547 10.667 17.001C10.6671 16.6473 10.5268 16.3081 10.2768 16.0579C10.0268 15.8078 9.68767 15.6671 9.334 15.667C8.98033 15.667 8.64115 15.8075 8.39107 16.0576C8.14099 16.3077 8.0005 16.6468 8.0005 17.0005C8.0005 17.3542 8.14099 17.6933 8.39107 17.9434C8.64115 18.1935 8.97933 18.334 9.333 18.334ZM18.667 17C18.667 17.3537 18.5265 17.6928 18.2764 17.9429C18.0263 18.193 17.6872 18.3335 17.3335 18.3335C16.9798 18.3335 16.6407 18.193 16.3906 17.9429C16.1405 17.6928 16 17.3537 16 17C16 16.6463 16.1405 16.3072 16.3906 16.0571C16.6407 15.807 16.9798 15.6665 17.3335 15.6665C17.6872 15.6665 18.0263 15.807 18.2764 16.0571C18.5265 16.3072 18.667 16.6463 18.667 17Z" />
</svg>
