<svg width="21" height="20" viewBox="0 0 21 20" fill="none" xmlns="http://www.w3.org/2000/svg">
<mask id="mask0_1_8233" style="mask-type:alpha" maskUnits="userSpaceOnUse" x="1" y="3" width="18" height="14">
<path fill-rule="evenodd" clip-rule="evenodd" d="M1.33325 4.16667C1.33325 3.70643 1.70635 3.33334 2.16659 3.33334H11.3333C11.7935 3.33334 12.1666 3.70643 12.1666 4.16667H15.4999C15.7926 4.16667 16.0639 4.32025 16.2145 4.57126L18.7145 8.73792C18.7922 8.86744 18.8333 9.01563 18.8333 9.16667V14.1667C18.8333 14.6269 18.4602 15 17.9999 15H17.0243C16.6811 15.971 15.7551 16.6667 14.6666 16.6667C13.5781 16.6667 12.652 15.971 12.3088 15H8.691C8.3478 15.971 7.42177 16.6667 6.33325 16.6667C5.24473 16.6667 4.3187 15.971 3.9755 15H2.99992C2.53968 15 2.16659 14.6269 2.16659 14.1667V10.8333C2.16659 10.3731 2.53968 10 2.99992 10C3.46016 10 3.83325 10.3731 3.83325 10.8333V13.3333H3.97551C4.3187 12.3623 5.24473 11.6667 6.33325 11.6667C7.42177 11.6667 8.3478 12.3623 8.691 13.3333H10.4999V5H2.16659C1.70635 5 1.33325 4.62691 1.33325 4.16667ZM17.1666 13.3333H17.0243C16.6811 12.3623 15.7551 11.6667 14.6666 11.6667C13.5781 11.6667 12.652 12.3623 12.3088 13.3333H12.1666V10H17.1666V13.3333ZM6.33325 15C5.87341 15 5.50056 14.6275 5.49992 14.1679L5.49992 14.1667L5.49992 14.1655C5.50056 13.7058 5.87341 13.3333 6.33325 13.3333C6.79349 13.3333 7.16658 13.7064 7.16658 14.1667C7.16658 14.6269 6.79349 15 6.33325 15ZM12.1666 5.83334V8.33334H16.5281L15.0281 5.83334H12.1666ZM13.8333 14.1667C13.8333 13.7064 14.2063 13.3333 14.6666 13.3333C15.1265 13.3333 15.4994 13.7059 15.4999 14.1658L15.4999 14.1667C15.4999 14.6269 15.1268 15 14.6666 15C14.2063 15 13.8333 14.6269 13.8333 14.1667ZM2.99992 6.66667C2.53968 6.66667 2.16659 7.03976 2.16659 7.5C2.16659 7.96024 2.53968 8.33333 2.99992 8.33333H6.33325C6.79349 8.33333 7.16659 7.96024 7.16659 7.5C7.16659 7.03976 6.79349 6.66667 6.33325 6.66667H2.99992Z" />
</mask>
<g mask="url(#mask0_1_8233)">
<rect x="0.5" width="20" height="20" />
</g>
</svg>
