<svg width="24" height="24" viewBox="0 0 24 24" fill="none" xmlns="http://www.w3.org/2000/svg">
<mask id="mask0_1_8367" style="mask-type:alpha" maskUnits="userSpaceOnUse" x="2" y="3" width="21" height="19">
<path d="M6.99182 3.08524C7.87688 2.93444 8.78451 2.98419 9.64779 3.23081C10.5111 3.47744 11.308 3.91466 11.9798 4.51024L12.0168 4.54324L12.0508 4.51324C12.692 3.95054 13.4458 3.53104 14.262 3.28273C15.0782 3.03441 15.9379 2.963 16.7838 3.07324L17.0298 3.10924C18.0961 3.29335 19.0928 3.7624 19.9143 4.46671C20.7358 5.17103 21.3515 6.08439 21.6963 7.11008C22.041 8.13577 22.102 9.2356 21.8727 10.2931C21.6434 11.3506 21.1324 12.3264 20.3938 13.1172L20.2138 13.3022L20.1658 13.3432L12.7158 20.7222C12.5439 20.8924 12.3161 20.9945 12.0747 21.0096C11.8333 21.0246 11.5946 20.9517 11.4028 20.8042L11.3088 20.7222L3.81582 13.3002C3.02204 12.5279 2.45752 11.5509 2.18478 10.4775C1.91204 9.4041 1.94172 8.27614 2.27054 7.21856C2.59936 6.16098 3.21448 5.21504 4.04778 4.48551C4.88109 3.75599 5.90005 3.27134 6.99182 3.08524Z" fill="black"/>
</mask>
<g mask="url(#mask0_1_8367)">
<path d="M0 0H24V24H0V0Z" fill="#DC2828"/>
</g>
</svg>
