<svg width="21" height="20" viewBox="0 0 21 20" fill="none" xmlns="http://www.w3.org/2000/svg">
<mask id="mask0_1_8221" style="mask-type:alpha" maskUnits="userSpaceOnUse" x="2" y="1" width="17" height="18">
<path fill-rule="evenodd" clip-rule="evenodd" d="M3.9214 2.12732C4.06256 1.845 4.35111 1.66667 4.66675 1.66667H16.3334C16.6491 1.66667 16.9376 1.845 17.0788 2.12732L18.7454 5.46066C18.8033 5.57637 18.8334 5.70396 18.8334 5.83333V6.66667C18.8334 7.55072 18.4822 8.39857 17.8571 9.02369C17.6493 9.23148 17.4169 9.40901 17.1667 9.55343V16.6667H18.0001C18.4603 16.6667 18.8334 17.0398 18.8334 17.5C18.8334 17.9603 18.4603 18.3334 18.0001 18.3334H13.0001H8.00008H3.00008C2.53984 18.3334 2.16675 17.9603 2.16675 17.5C2.16675 17.0398 2.53984 16.6667 3.00008 16.6667H3.83341V9.55343C3.58326 9.40901 3.35086 9.23148 3.14306 9.02369C2.51794 8.39857 2.16675 7.55072 2.16675 6.66667V5.83333C2.16675 5.70396 2.19687 5.57637 2.25473 5.46066L3.9214 2.12732ZM8.83341 16.6667H12.1667V14.1667C12.1667 13.9457 12.079 13.7337 11.9227 13.5775C11.7664 13.4212 11.5544 13.3334 11.3334 13.3334H9.66675C9.44573 13.3334 9.23377 13.4212 9.07749 13.5775C8.92121 13.7337 8.83341 13.9457 8.83341 14.1667V16.6667ZM13.8334 16.6667V14.1667C13.8334 13.5037 13.57 12.8678 13.1012 12.3989C12.6323 11.9301 11.9965 11.6667 11.3334 11.6667H9.66675C9.00371 11.6667 8.36782 11.9301 7.89898 12.3989C7.43014 12.8678 7.16675 13.5037 7.16675 14.1667V16.6667H5.50008L5.50009 10C6.38414 10 7.23199 9.64881 7.85711 9.02369C7.90649 8.97431 7.95416 8.92354 8.00009 8.87147C8.04601 8.92354 8.09368 8.97431 8.14306 9.02369C8.76818 9.64881 9.61603 10 10.5001 10C11.3841 10 12.232 9.64881 12.8571 9.02369C12.9065 8.97431 12.9542 8.92354 13.0001 8.87147C13.046 8.92354 13.0937 8.97431 13.1431 9.02369C13.7682 9.64881 14.616 10 15.5001 10L15.5001 16.6667H13.8334ZM8.83342 6.66667C8.83342 7.1087 9.00901 7.53262 9.32157 7.84518C9.63413 8.15774 10.0581 8.33333 10.5001 8.33333C10.9421 8.33333 11.366 8.15774 11.6786 7.84518C11.9912 7.53262 12.1668 7.1087 12.1668 6.66667H8.83342ZM4.34845 5L5.18178 3.33333H15.8184L16.6517 5H4.34845ZM13.8334 6.66667C13.8334 7.1087 14.009 7.53262 14.3216 7.84518C14.6341 8.15774 15.0581 8.33333 15.5001 8.33333C15.9421 8.33333 16.366 8.15774 16.6786 7.84518C16.9912 7.53262 17.1668 7.1087 17.1668 6.66667H13.8334ZM3.83342 6.66667H7.16675C7.16675 7.1087 6.99116 7.53262 6.6786 7.84518C6.36604 8.15774 5.94211 8.33333 5.50009 8.33333C5.05806 8.33333 4.63414 8.15774 4.32158 7.84518C4.00901 7.53262 3.83342 7.1087 3.83342 6.66667Z" />
</mask>
<g mask="url(#mask0_1_8221)">
<rect x="0.5" width="20" height="20"/>
</g>
</svg>
