<svg width="24" height="24" viewBox="0 0 24 24" fill="none" xmlns="http://www.w3.org/2000/svg">
<path d="M21 19.0979L16.7468 14.8447C17.1415 14.315 17.4479 13.723 17.666 13.0686C17.8945 12.4143 18.0088 11.7288 18.0088 11.0122C18.0088 10.1086 17.8374 9.26209 17.4946 8.47274C17.1519 7.68338 16.6845 6.99789 16.0925 6.41626C15.5109 5.82425 14.8254 5.35686 14.036 5.01412C13.2467 4.67137 12.4054 4.5 11.5122 4.5C10.6086 4.5 9.76209 4.67137 8.97274 5.01412C8.18338 5.35686 7.4927 5.82425 6.90068 6.41626C6.31905 6.99789 5.85686 7.68338 5.51412 8.47274C5.17137 9.26209 5 10.1086 5 11.0122C5 11.9054 5.17137 12.7467 5.51412 13.536C5.85686 14.3254 6.31905 15.0161 6.90068 15.6081C7.4927 16.1897 8.18338 16.6519 8.97274 16.9946C9.76209 17.3374 10.6086 17.5088 11.5122 17.5088C12.2288 17.5088 12.9143 17.3997 13.5686 17.1816C14.223 16.9531 14.8202 16.6415 15.3603 16.2468H15.3447L19.5979 20.5L21 19.0979ZM11.5278 16.0131C10.8423 16.0131 10.1931 15.8833 9.58033 15.6237C8.97793 15.364 8.44823 15.0109 7.99124 14.5643C7.54463 14.1073 7.1915 13.5776 6.93184 12.9752C6.67218 12.3624 6.54236 11.7132 6.54236 11.0278C6.54236 10.3423 6.67218 9.69312 6.93184 9.08033C7.1915 8.47793 7.54463 7.95342 7.99124 7.50682C8.44823 7.04982 8.97793 6.6915 9.58033 6.43184C10.1931 6.17218 10.8423 6.04236 11.5278 6.04236C12.2132 6.04236 12.8624 6.17218 13.4752 6.43184C14.0776 6.6915 14.6021 7.04982 15.0487 7.50682C15.5057 7.95342 15.864 8.47793 16.1237 9.08033C16.3833 9.69312 16.5131 10.3423 16.5131 11.0278C16.5131 11.7132 16.3833 12.3624 16.1237 12.9752C15.864 13.5776 15.5057 14.1073 15.0487 14.5643C14.6021 15.0109 14.0776 15.364 13.4752 15.6237C12.8624 15.8833 12.2132 16.0131 11.5278 16.0131Z"/>
</svg>
