<svg width="16" height="17" viewBox="0 0 16 17" fill="none" xmlns="http://www.w3.org/2000/svg">
<mask id="mask0_9_7325" style="mask-type:alpha" maskUnits="userSpaceOnUse" x="1" y="2" width="14" height="13">
<path d="M8.26663 12.4709C8.10272 12.3846 7.90678 12.3845 7.74278 12.4707L4.84261 13.9955C4.43005 14.2124 3.94786 13.8621 4.02667 13.4027L4.5807 10.173C4.61202 9.99039 4.55142 9.80412 4.41869 9.67492L2.06954 7.38825C1.73535 7.06295 1.91958 6.49566 2.38112 6.42876L5.62194 5.95908C5.80519 5.93252 5.96362 5.81746 6.04556 5.65142L7.49577 2.71294C7.70204 2.29498 8.29804 2.29498 8.50431 2.71294L9.95452 5.65142C10.0365 5.81746 10.1949 5.93252 10.3781 5.95908L13.619 6.42876C14.0805 6.49566 14.2647 7.06295 13.9305 7.38825L11.5814 9.67492C11.4487 9.80412 11.3881 9.99039 11.4194 10.173L11.9732 13.4014C12.052 13.861 11.5694 14.2113 11.1568 13.9939L8.26663 12.4709Z" fill="#F3B346"/>
</mask>
<g mask="url(#mask0_9_7325)">
<rect y="0.50061" width="16" height="16" fill="#EA8850"/>
</g>
</svg>
